<svg xmlns="http://www.w3.org/2000/svg" xmlns:xlink="http://www.w3.org/1999/xlink" id="Camada_1" x="0" y="0" version="1.1" viewBox="0 0 67.3 24" style="enable-background:new 0 0 67.3 24" xml:space="preserve"><style type="text/css">.st0{fill:none}.st1{fill:#f47f20}.st2{fill:#f89c1c}.st3{fill:#f9a41a}.st4{fill:#f8a11b}.st5{fill:#f89f1b}.st6{fill:#f48220}.st7{fill:#f47c20}.st8{fill:#f5831f}.st9{fill:#f79a1c}.st10{fill:#f7971d}.st11{fill:#f6901e}.st12{fill:#f79a1e}.st13{fill:#f5871f}.st14{fill:#f6941e}.st15{fill:#f58a1f}.st16{fill:#f6911e}.st17{fill:#f68f1e}.st18{fill:#f58c1f}.st19{fill:#fefefe}.st20{fill:#f79a1d}.st21{fill:#f7a035}.st22{fill:#f79e33}.st23{fill:#fefdfb}.st24{fill:#fdfbf9}.st25{fill:#f58921}.st26{fill:#f5912d}.st27{fill:#f6931e}.st28{fill:#f58720}.st29{fill:#fefbf9}.st30{fill:#f58a22}.st31{fill:#f7a13c}.st32{fill:#f69e47}.st33{fill:#f79c3b}.st34{fill:#f58f30}.st35{fill:#f6963c}.st36{fill:#fcebda}.st37{fill:#fbe3cc}.st38{fill:#6a6a6a;stroke:#000;stroke-width:1.000000e-02;stroke-miterlimit:10}</style><switch><g><path d="M0.1,24.1c0-7.9,0-15.8,0-23.6c0-0.3,0.1-0.4,0.4-0.4c7.7,0,15.5,0,23.2,0c0.3,0,0.4,0.1,0.4,0.4 c0,7.7,0,15.5,0,23.2c0,0.3-0.1,0.4-0.4,0.4C15.8,24.1,8,24.1,0.1,24.1z" class="st0"/><path d="M21.4,19c-0.1,0.7-0.5,1.2-1,1.6c-4.6-0.1-9.3,0-13.9,0c-0.9,0-1.7,0-2.6,0.1c-0.5-0.4-0.9-0.9-1.1-1.5 c0.1-0.2,0.3-0.3,0.5-0.3c0.1,0,0.2,0,0.3,0c5.7,0,11.5,0,17.2,0C20.9,18.8,21.2,18.7,21.4,19z" class="st1"/><path d="M2.5,6.7c0-0.4,0-0.8,0-1.1C2.6,5.4,2.8,5.4,3,5.4c0.2,0,0.3,0,0.5,0c5.8,0,11.5,0,17.3,0 c0.3,0,0.7-0.1,0.9,0.2c0.1,0.3,0.1,0.7,0,1c-0.1,0.1-0.2,0.2-0.4,0.2c-1.1,0-2.2,0-3.4,0c-0.2,0-0.3-0.1-0.5-0.1 c-0.1,0-0.1,0-0.2,0c-0.6,0-1.3,0-1.9,0.2c-0.2,0.1-0.4,0.1-0.6,0c-0.1-0.1-0.3-0.1-0.4-0.1c-1.4,0-2.9,0-4.3,0 c-0.2,0-0.3,0-0.4,0.1C8.9,7,8.3,6.7,7.7,6.7c-0.3-0.1-0.6-0.1-0.9,0c0,0.1-0.1,0.1-0.1,0.1C6.6,6.9,6.5,6.9,6.3,6.9 c-1,0-2.1,0-3.1,0C2.9,6.9,2.7,7,2.5,6.7z" class="st2"/><path d="M3.6,3.6c0.7-0.8,1.6-1.2,2.6-1.2c3.9,0,7.9,0,11.8,0c1,0,1.9,0.4,2.6,1.2c-0.2,0.2-0.4,0.2-0.6,0.2 c-5.3,0-10.5,0-15.8,0C4,3.7,3.7,3.7,3.6,3.6z" class="st3"/><path d="M3.6,3.6c5.7,0,11.4,0,17.1,0c0.3,0.2,0.5,0.6,0.7,0.9c-0.2,0.2-0.4,0.2-0.6,0.2c-5.1,0-10.2,0-15.4,0 c-0.6,0-1.2,0-1.8,0c-0.2,0-0.4,0-0.6-0.2C3,4.1,3.3,3.8,3.6,3.6z" class="st4"/><path d="M2.9,4.5c1.2,0.2,2.4,0.1,3.5,0.1c1.4,0,2.8,0,4.2,0c1.4,0,2.9,0,4.3,0c1.9,0,3.9,0,5.8,0 c0.2,0,0.4-0.1,0.6-0.1c0.2,0.3,0.3,0.7,0.4,1.1c-0.2-0.1-0.4-0.1-0.5-0.1c-6,0-12,0-18,0c-0.2,0-0.4,0-0.5,0.1 C2.6,5.2,2.7,4.8,2.9,4.5z" class="st5"/><path d="M21.4,19c-0.2-0.1-0.4-0.1-0.6-0.1c-5.8,0-11.6,0-17.4,0c-0.2,0-0.5,0-0.6,0.2c-0.1-0.4-0.3-0.7-0.2-1.1 c0.2-0.2,0.5-0.2,0.7-0.2c4.5,0,8.9,0,13.4,0c1.4,0,2.9,0,4.3,0c0.2,0,0.5,0,0.7,0.1C21.6,18.4,21.6,18.7,21.4,19z" class="st6"/><path d="M3.8,20.6c0.1-0.2,0.4-0.2,0.6-0.2c5.1,0,10.2,0,15.4,0c0.2,0,0.4,0,0.6,0.2c-0.7,0.7-1.6,0.9-2.6,0.9 c-3.8,0-7.7,0-11.5,0C5.4,21.6,4.5,21.3,3.8,20.6z" class="st7"/><path d="M21.7,18c-6.4,0-12.7,0-19.1,0c0-0.4,0-0.8,0-1.2c0.7-0.1,1.4,0,2.1-0.1c1-0.1,1.9,0,2.9-0.1 c1.4,0.1,2.9,0.2,4.1,0.9c0.1,0.1,0.3,0.1,0.5,0.1c0.2,0,0.5,0.1,0.7-0.2c0.1-0.1,0.2-0.2,0.3-0.2c0.2,0.3,0.5,0.3,0.8,0.3 c0.4,0,0.9,0,1.3,0c0.3,0,0.7-0.1,1,0c0.7,0.1,1.4,0,2.1,0c0.9,0,1.7,0,2.6,0c0.3,0,0.5,0,0.8-0.1C21.7,17.6,21.7,17.8,21.7,18z" class="st8"/><path d="M21.7,17.4c-0.2,0.1-0.3,0.7-0.6,0.2c-0.1,0.4-0.5-0.2-0.7,0.2c-0.2-0.4-0.6,0.3-0.8-0.1 c-0.2,0.3-0.5-0.2-0.7,0.1c-0.3-0.3-0.6,0.3-0.9-0.1c-0.1-0.1-0.5,0.1-0.6,0c-0.3-0.2-0.6,0.4-0.9,0c-0.1-0.2-0.4,0.3-0.5-0.1 c-0.2,0.2-0.5-0.1-0.7,0.1c-0.1,0.1-0.2,0.1-0.2,0c-0.1-0.3-0.5,0.2-0.7-0.2c-0.1,0.3-0.5-0.1-0.7,0.2c-0.1,0.1-0.2,0-0.3,0 c0,0-0.1-0.1-0.1-0.1c-0.5,0.4-0.3-0.2-0.4-0.3c0-0.2,0.2-0.2,0.3-0.3c0.9-0.2,1.7-0.5,2.6-0.4c1.6,0.2,3.2,0,4.8,0.1 c0.3,0,0.5,0,0.8,0.1C21.7,17.1,21.7,17.2,21.7,17.4z" class="st8"/><path d="M17.4,6.7c1.2,0.2,2.3,0,3.5,0.1c0.2,0,0.5,0,0.7-0.1c0,0.4,0,0.8,0,1.2C21.5,8,21.4,8,21.3,8 c-1,0-2,0.1-2.9,0c-0.2,0-0.2-0.2-0.3-0.3c-0.1-0.1-0.2,0-0.2,0.1c0,0.9,0,1.8,0,2.6c0,0.2,0,0.4-0.1,0.6c-0.1,0.1-0.2,0.1-0.3,0 c-0.1-0.2-0.1-0.3-0.1-0.5c0-1.1,0-2.2,0-3.3C17.3,7,17.3,6.8,17.4,6.7z" class="st9"/><path d="M2.5,9.1c0-0.5,0-0.9,0-1.4c0.3-0.2,0.6-0.1,0.9-0.1c0.7-0.1,1.3,0,2,0c0.6,0,0.8,0.2,0.8,0.8 c0,0.4,0.1,0.8-0.1,1.1c-0.1,0.1-0.2,0.1-0.3,0C5.6,9.3,5.6,9.1,5.5,8.9C5.4,9,5.5,9.2,5.5,9.3c0,2.2,0,4.4,0,6.5 c0,0.2,0,0.5-0.1,0.7c-0.3,0-0.2-0.3-0.2-0.4c0-0.3,0-0.6,0-1c0-0.4,0-0.8,0-1.2c0-0.3,0-0.6,0-0.9c0-0.4,0-0.7,0-1.1 c0-0.4,0-0.8,0-1.1c0-0.4,0-0.7,0-1.1c0-0.3-0.1-0.4-0.4-0.4c-0.6,0-1.1,0-1.7,0C2.8,9.3,2.7,9.3,2.5,9.1z" class="st10"/><path d="M21.7,10.9c0,0.7,0,1.3,0,2c-0.1,0.1-0.2,0.2-0.4,0.2c-0.7,0-1.3,0-2,0c-0.2,0-0.4-0.1-0.5-0.3 c0-0.6-0.2-1.3,0.1-1.9C19.8,10.7,20.8,10.6,21.7,10.9z" class="st11"/><path d="M6,9.5C6,9,6,8.6,6,8.2c0-0.4-0.2-0.5-0.5-0.5c-0.7,0.1-1.4-0.1-2.1,0c-0.3,0-0.6,0-0.9,0c0-0.3,0-0.6,0-0.9 C3.3,6.9,4.1,6.8,5,6.8c0.6,0,1.2,0.1,1.8-0.1C6.8,6.8,6.9,7,6.9,7.1c0,1.2,0,2.4,0,3.6c0,0.1,0,0.2-0.1,0.2 c-0.1,0.1-0.2,0.1-0.3,0c-0.2-0.2-0.1-0.4-0.1-0.6c0-0.8,0.1-1.7-0.1-2.5C6.2,8,6.2,8.2,6.2,8.3c0,2.2,0,4.5,0,6.7 c0,0.2,0,0.5-0.1,0.7c-0.2,0-0.2-0.2-0.2-0.3c0-0.2,0-0.4,0-0.5c0-1,0-1.9,0-2.9c0-0.7,0-1.3,0-2C5.9,9.8,5.8,9.6,6,9.5z" class="st12"/><path d="M18.9,10.9c0,0.7,0,1.3,0,2c0.2,0.4,0.1,0.7,0.1,1.1c0,0.4,0,0.8,0,1.2c0,0.3,0,0.6,0,1c0,0.2,0,0.4-0.2,0.4 c-0.2-0.2-0.1-0.5-0.1-0.7c0-2.2,0-4.3,0-6.5c0-0.2,0-0.4,0-0.6c-0.1,0.2,0,0.5-0.2,0.7c-0.1,0.1-0.2,0.1-0.3,0 c-0.1-0.5-0.2-1.1,0-1.6c1.2,0,2.3,0,3.5,0c0,0.4,0,0.8,0,1.2c-0.1,0.2-0.4,0.2-0.6,0.2c-0.5,0-1.1,0-1.6,0 c-0.3,0-0.4,0.1-0.4,0.4C19.1,10.1,19.2,10.5,18.9,10.9z" class="st10"/><path d="M18.8,16.6c0.2-0.5,0-0.9,0.1-1.4c0.9,0,1.8-0.2,2.7,0.1c0,0.5,0,1.1,0,1.6c-1.4,0-2.7,0-4.1,0 c-0.5,0-1,0-1.5-0.1c0-0.1,0.1-0.2,0.2-0.2c0.8,0,1.5-0.2,2.3-0.1C18.7,16.5,18.8,16.5,18.8,16.6z" class="st13"/><path d="M5.2,15.2c0.1,0.5-0.1,0.9,0.1,1.4c0.7-0.2,1.5-0.2,2.2,0.1c-0.4,0.2-0.8,0.1-1.1,0.1 c-1.1,0-2.3,0.1-3.4,0.1c-0.2,0-0.3-0.1-0.4-0.1c0-0.5,0-1.1,0-1.6c0.4-0.3,0.8-0.1,1.2-0.1C4.2,15,4.7,15,5.2,15.2z" class="st13"/><path d="M18.9,10.9c0-0.5,0-1,0-1.5c0-0.2,0-0.2,0.3-0.2c0.8,0,1.6,0.1,2.5-0.1c0,0.6,0,1.2,0,1.8 C20.8,10.9,19.9,10.9,18.9,10.9z" class="st14"/><path d="M2.5,9.1c0.6,0.1,1.3,0,1.9,0c0.2,0,0.4,0.1,0.7,0c0.2-0.1,0.2,0.1,0.2,0.3c0,0.4,0,0.9,0,1.3 c-0.4,0.3-2.3,0.3-2.7,0C2.5,10.2,2.5,9.6,2.5,9.1z" class="st14"/><path d="M21.7,15.3c-0.4,0.1-0.8-0.1-1.3,0c-0.5,0.1-1,0.1-1.4-0.1c0-0.4,0-0.8,0-1.2c0.1-0.1,0.2-0.1,0.4-0.1 c0.6,0,1.2,0,1.8,0c0.2,0,0.3,0,0.5,0.1C21.7,14.4,21.7,14.8,21.7,15.3z" class="st15"/><path d="M5.2,15.2c-0.9,0-1.8,0-2.7,0c0-0.4,0-0.8,0-1.2c0.9-0.1,1.8-0.1,2.7,0C5.2,14.4,5.2,14.8,5.2,15.2z" class="st15"/><path d="M2.5,10.7c0.9,0.1,1.8,0.1,2.7,0c0,0.4,0,0.8,0,1.2C5.1,12,5,12,4.9,12c-0.7,0-1.4,0-2,0 c-0.1,0-0.2-0.1-0.3-0.1C2.5,11.5,2.5,11.1,2.5,10.7z" class="st16"/><path d="M2.5,11.9c0.9,0,1.8,0,2.7,0c0,0.4,0,0.7,0,1.1c-0.7,0.3-1.4,0.1-2.1,0.1c-0.2,0-0.5,0-0.6-0.2 C2.5,12.6,2.5,12.2,2.5,11.9z" class="st17"/><path d="M21.7,14c-0.9,0-1.8,0-2.7,0c0-0.4,0-0.8,0-1.1c0.9,0.1,1.8,0.1,2.7,0C21.7,13.2,21.7,13.6,21.7,14z" class="st18"/><path d="M2.5,12.9C3.3,13.1,4.2,13,5,13c0.1,0,0.2,0,0.3,0c0,0.3,0,0.6,0,0.9c-0.9,0.1-1.8,0.1-2.7,0 C2.5,13.6,2.5,13.3,2.5,12.9z" class="st18"/><path d="M14.7,6.8c0.9-0.1,1.7-0.4,2.6-0.3c0.1,1,0,2.1,0,3.1c0.1,1.6,0.1,3.2,0.1,4.7c0,0.3,0,0.6-0.4,0.7 c-0.7,0.1-1.3,0.1-2,0.3c-0.9,0.3-1.8,0.7-2.6,1.3c-0.1,0.1-0.2,0.2-0.4,0.1c-0.1-0.2-0.1-0.4-0.1-0.7c0-0.7,0-1.5,0-2.2 c0-0.7,0-1.5,0-2.2c0-1.1,0-2.1,0-3.2c0-0.2,0.1-0.4,0.3-0.5c0.6-0.5,1.3-0.9,2.1-1.1C14.5,6.8,14.6,6.8,14.7,6.8z" class="st19"/><path d="M7.7,6.5c0.6,0.1,1.2,0.2,1.8,0.3c0.9,0,1.6,0.5,2.4,1.1c0.2,0.1,0.3,0.3,0.3,0.6c0,1,0,2.1,0,3.1 c0,0.7,0,1.5,0,2.2c0,0.9,0,1.9,0,2.8c-0.1,0.3-0.3,0.1-0.4,0c-1.2-0.9-2.5-1.4-4-1.5c-0.2,0-0.4,0-0.6-0.1 c-0.3-0.1-0.3-0.4-0.3-0.6c0-1.2,0-2.4,0.1-3.6c0.1-1.1,0-2.2,0-3.3c0-0.3,0-0.6,0-0.9C7.1,6.5,7.4,6.5,7.7,6.5z" class="st19"/><path d="M12,8.3c-0.4-0.6-1.2-0.9-1.8-1.2C9.9,7,9.7,7,9.5,6.9c0.1-0.2,0.3-0.2,0.5-0.2c1.5,0,2.9,0,4.4,0 c0.2,0,0.3,0,0.4,0.2c-0.7,0.3-1.4,0.5-2,1c-0.2,0.1-0.4,0.3-0.5,0.5C12.1,8.4,12.1,8.4,12,8.3z" class="st20"/><path d="M16.9,15c0.3,0,0.4-0.1,0.4-0.5c0-2.6,0-5.3,0-7.9c0,0,0.1,0.1,0.1,0.1c0,1.4,0,2.9,0,4.3 c0.1,0.1,0.1,0.3,0.1,0.4c0,1.1,0,2.1,0,3.2C17.6,15.1,17.4,15.2,16.9,15z" class="st21"/><path d="M6.8,6.6c0,2.7,0,5.3,0,8c0,0.3,0.1,0.4,0.3,0.4c-0.4,0.1-0.5,0.1-0.5-0.3c0-0.4,0-0.8,0-1.2 c0-0.6,0-1.3,0-1.9c0-0.2,0-0.4,0.1-0.6c0-1.4,0-2.8,0-4.2C6.7,6.7,6.7,6.6,6.8,6.6C6.8,6.5,6.8,6.5,6.8,6.6z" class="st22"/><path d="M6.8,6.6C6.8,6.6,6.8,6.6,6.8,6.6C6.8,6.6,6.8,6.6,6.8,6.6c0.2-0.2,0.5-0.1,0.8,0C7.4,6.5,7.1,6.6,6.8,6.6z" class="st12"/><path d="M7.5,16.7c-0.7-0.1-1.4-0.1-2.2-0.1c0-2.6,0-5.2,0-7.9c0-0.1,0-0.3,0.1-0.3c0.2,0,0.2,0.1,0.2,0.3 c0,0.2,0,0.5,0,0.7C5.9,9.6,5.9,9.8,5.9,10c0,0.6,0,1.3,0,1.9c0,0.9,0,1.9,0,2.8c0,0.2,0,0.5,0,0.7c0,0.5,0,0.5,0.5,0.5 c1.3,0,2.5,0.2,3.8,0.5c0.5,0.1,1,0.3,1.5,0.6c0.3,0.2,0.5,0.2,0.8,0c1.6-0.8,3.4-1,5.2-1.1c0.7,0,0.7,0,0.7-0.7c0-0.5,0-1,0-1.5 c0-1,0-2,0-2.9c0-0.5-0.1-1,0.1-1.5c0-0.3,0-0.5,0-0.8c0-0.1,0.1-0.2,0.2-0.2c0.2,0,0.2,0.1,0.2,0.2c0,0.1,0,0.2,0,0.4 c0,2.5,0,5,0,7.5c-0.9,0-1.9,0-2.8,0.2c-1,0-2,0.2-2.9,0.6c-0.1,0-0.2,0.1-0.3,0.2c-0.1,0.2-0.3,0.1-0.5,0.2c-0.2,0-0.4,0-0.6-0.1 c-0.9-0.5-1.8-0.7-2.8-0.8C8.5,16.8,8,16.7,7.5,16.7z" class="st23"/><path d="M12.4,17.7c0.2,0,0.3-0.1,0.5-0.1c0,0.1,0.2,0.3,0,0.3c-0.2-0.1-0.4,0.1-0.6,0C12.2,17.7,12.3,17.7,12.4,17.7 z" class="st8"/><path d="M12.4,17.7c-0.1,0-0.1,0-0.2,0.1c-0.2,0-0.3,0-0.5-0.1C11.9,17.7,12.2,17.7,12.4,17.7z" class="st6"/><path d="M17.8,7.5c0.1-0.1,0.2-0.1,0.3,0c0.1,2.7,0.1,5.3,0.1,8c0,0.1,0,0.1,0,0.2c-0.1,0.2-0.4,0.2-0.6,0.2 c-1.7,0-3.2,0.4-4.7,1c-0.2,0.1-0.3,0.2-0.5,0.1c-0.2-0.3,0.1-0.3,0.2-0.4c1.4-0.9,2.9-1.2,4.5-1.4c0.2,0,0.4,0,0.5-0.1 c0.1-0.2,0.1-0.4,0.1-0.6c-0.1-2.3,0.1-4.5,0.1-6.8C17.8,7.6,17.8,7.6,17.8,7.5z" class="st24"/><path d="M17.7,15.4c-1.8,0-3.5,0.5-5.1,1.3c-0.1,0-0.1,0-0.1-0.1c1.3-1.1,2.8-1.5,4.5-1.6c0.4,0.1,0.5-0.1,0.5-0.5 c0-1.2,0-2.4,0-3.6c0.1,0,0.2,0,0.3,0c0.1,0.3,0.1,0.6,0,0.9C17.7,13,17.8,14.2,17.7,15.4z" class="st25"/><path d="M18.1,15.7c0-0.1,0-0.3,0-0.4c0-2.6,0-5.2,0-7.8c0.1,0.1,0.1,0.3,0.1,0.4c0,0.5,0,1.1,0,1.6 c0.3,0.5,0.1,1,0.1,1.5c0,1,0,2,0,3c0,0.4,0,0.9,0,1.3C18.3,15.5,18.4,15.7,18.1,15.7z" class="st26"/><path d="M17.7,15.4c0-1.5,0-2.9,0-4.4c0-1,0-2,0-3c0-0.2-0.1-0.3,0.1-0.5c0,2.5,0,4.9,0,7.4 C17.8,15,17.9,15.2,17.7,15.4z" class="st21"/><path d="M5.7,12c0-0.8,0-1.7,0-2.5c0.1,0,0.2,0,0.3,0c0,0.8,0,1.7,0,2.5C5.9,12.1,5.8,12.1,5.7,12z" class="st27"/><path d="M18.1,15.7c0.2-0.2,0.1-0.4,0.1-0.6c0-0.4,0-0.8,0-1.2c0.1-0.1,0.2-0.1,0.3,0c0,0.6,0,1.2,0,1.8 c0,0.3-0.1,0.4-0.4,0.4c-1.6,0-3.1,0.2-4.6,0.6c-0.3,0.1-0.6,0.2-0.9,0.4c-0.3,0.2-0.7,0.3-1,0.1c-1-0.6-2.1-0.7-3.1-0.9 c-0.8-0.1-1.7-0.2-2.5-0.2c-0.3,0-0.3-0.1-0.3-0.3c0-0.3,0-0.7,0-1c0.1-0.1,0.2-0.1,0.3,0c0.1,0.3-0.1,0.6,0.1,0.8 c0.5-0.2,1-0.1,1.5-0.1c1.3,0.1,2.6,0.4,3.8,1c0.2,0.1,0.3,0.2,0.5,0.3c0,0,0.1,0,0.1,0.1c0.1,0,0.1,0.1,0.2,0c0,0,0.1,0,0.1,0 c0.9-0.3,1.7-0.7,2.5-0.9C15.9,15.9,17,15.7,18.1,15.7z" class="st28"/><path d="M11.4,16.8C9.7,16,8,15.7,6.1,15.7c0-0.1,0-0.3,0-0.4c0-2.5,0-5,0-7.5c0-0.2-0.1-0.5,0.3-0.4 c0.1,0.7,0,1.5,0,2.2c0.1,1.7,0.1,3.3,0.1,5c0,0.2,0,0.3,0.1,0.4c0.4,0.2,0.8,0.1,1.2,0.2c1.1,0.1,2.2,0.5,3.2,0.9 c0.2,0.1,0.5,0.2,0.6,0.5C11.5,16.8,11.5,16.8,11.4,16.8z" class="st29"/><path d="M11.5,16.7c-1.4-0.8-2.9-1.2-4.5-1.3c-0.2,0-0.3,0-0.5,0c-0.1-0.1-0.1-0.2-0.1-0.3c0-1.3,0-2.6,0-3.9 c0-0.1,0-0.1,0-0.1c0.1,0,0.2,0,0.3,0c0,1.2,0,2.4,0,3.6c0,0.3,0.1,0.4,0.4,0.4c1.7,0,3.2,0.5,4.6,1.6c0,0.1,0,0.1-0.1,0.2 C11.6,16.7,11.6,16.7,11.5,16.7z" class="st30"/><path d="M6,14.9c-0.1,0-0.2,0-0.3,0c0-1,0-1.9,0-2.9c0.1,0,0.2,0,0.3,0C6,13,6,13.9,6,14.9z" class="st18"/><path d="M6.5,11c0,1.3,0,2.6,0,3.9c0,0.2,0,0.3,0.1,0.5c-0.3,0-0.2-0.3-0.2-0.4c0-2.5,0-5,0-7.4 C6.5,7.6,6.5,7.8,6.5,8C6.5,9,6.5,10,6.5,11z" class="st22"/><path d="M18.2,11c0-0.5,0-1,0-1.5c0.1,0,0.2,0,0.3,0c0,0.5,0,1,0,1.5C18.4,11,18.3,11,18.2,11z" class="st14"/><path d="M12,8.3c0.1,0,0.1,0,0.2,0c0,1.1,0,2.2,0,3.3c-0.1,0.1-0.1,0.1-0.2,0C12,10.5,12,9.4,12,8.3z" class="st31"/><path d="M12,16.8c0-1,0-1.9,0-2.9c0.1-0.1,0.1-0.1,0.2,0c0,0.8,0,1.5,0,2.3c-0.1,0.2,0,0.4-0.1,0.7 C12.1,16.8,12,16.8,12,16.8z" class="st32"/><path d="M12.2,13.9c-0.1,0-0.1,0-0.2,0c0-0.7,0-1.5,0-2.2c0.1,0,0.1,0,0.2,0C12.2,12.4,12.2,13.1,12.2,13.9z" class="st33"/><path d="M12,16.8c0,0,0.1,0,0.1,0c0-0.1,0.1-0.1,0.1,0c0.1-0.1,0.2-0.1,0.2-0.2c0,0,0.1,0.1,0.1,0.1 c-0.1,0.1-0.3,0.1-0.3,0.3c0,0,0,0,0,0c-0.1,0.1-0.3,0.1-0.4,0l0,0c-0.1-0.1-0.3-0.2-0.3-0.4c0,0,0.1-0.1,0.1-0.1 C11.8,16.6,11.9,16.7,12,16.8z" class="st34"/><path d="M12.2,16.8c0,0-0.1,0-0.1,0c0-0.2-0.1-0.4,0.1-0.6C12.2,16.3,12.2,16.6,12.2,16.8z" class="st35"/><path d="M18.2,11c0.1,0,0.2,0,0.3,0c0,1,0,2,0,3c-0.1,0-0.2,0-0.3,0C18.2,13,18.2,12,18.2,11z" class="st11"/><path d="M11.6,16.7c0.1,0.1,0.3,0.1,0.3,0.4c-0.2,0-0.4-0.1-0.5-0.3C11.4,16.8,11.5,16.7,11.6,16.7 C11.6,16.7,11.6,16.7,11.6,16.7z" class="st36"/><path d="M11.9,17.1c0.1-0.1,0.3-0.1,0.4,0C12.2,17.3,12.1,17.3,11.9,17.1z" class="st37"/><g><g><path d="M58.6,8.9C58.6,8.9,58.6,8.9,58.6,8.9C58.5,9,58.5,9,58.4,9c-0.5,0-1.2,0.1-2.3,0.1c-1.1,0-2.1,0-3.1,0 c-0.2,0.7-0.4,1.4-0.6,2.1S52,12.3,52,12.6c-0.1,0.2-0.1,0.4-0.1,0.6c0,0.2,0.1,0.3,0.2,0.3c0.2,0,0.4-0.1,0.6-0.4 c0.3-0.4,0.7-0.8,1-1.3c0,0,0,0,0,0c0,0,0.1-0.1,0.1-0.1c0,0,0.1-0.1,0.1-0.1s0.1,0,0.1,0s0,0,0.1,0.1s0,0.1,0,0.1 c0,0-0.1,0.1-0.1,0.1c0,0,0,0,0,0c-0.3,0.5-0.6,0.9-1,1.3c-0.3,0.3-0.6,0.5-0.8,0.5c0,0-0.1,0-0.1,0c-0.2,0-0.3-0.1-0.3-0.3 s0-0.3,0-0.5c0-0.2,0.1-0.3,0.1-0.4c0-0.2,0.1-0.4,0.2-0.8C51,12.2,50,12.6,49,13c0.1,0.2,0.1,0.4,0.2,0.5 c0.3,1,0.4,2.2,0.4,3.4c0,0,0,0.1,0,0.1s0,0-0.1,0.1c0,0,0,0-0.1,0c0,0-0.1,0-0.1-0.1c-0.4-0.7-0.9-1.2-1.7-1.5 s-1.7-0.5-2.7-0.5c-0.5,0-1,0.1-1.5,0.2c-0.5,0.1-1,0.2-1.5,0.4c-0.9,0.4-1.9,0.7-2.8,1.1c0,0-0.1,0-0.1,0c0,0,0,0-0.1-0.1 c0,0,0-0.1,0-0.1c0,0,0-0.1,0.1-0.1c0.8-0.4,1.8-0.7,2.8-1.1c0.7-0.3,1.3-0.5,2-0.8c1.6-0.6,3.1-1.2,4.7-1.8c0,0,0-0.1,0-0.1 c0,0,0,0,0,0c-0.1-0.4-0.2-0.8-0.3-1.2s-0.2-0.8-0.2-1.2C48,10,48,9.6,48,9.1s0.2-0.9,0.4-1.3c0.3-0.5,0.8-0.9,1.3-1.1 c0.6-0.2,1.1-0.1,1.6,0.2c0.3,0.2,0.5,0.5,0.6,0.9c0.1,0.4,0.1,0.7,0,1c0.2,0,0.5,0,0.9,0c0.3-1.1,0.5-1.9,0.6-2.2 c0,0,0-0.1,0.1-0.1s0.1,0,0.1,0s0.1,0,0.1,0s0,0.1,0,0.1C53.5,7,53.3,7.7,53,8.9c1,0,2,0,3.1,0c1.1,0,1.9,0,2.3-0.1 C58.5,8.7,58.5,8.7,58.6,8.9C58.6,8.8,58.6,8.8,58.6,8.9z M48.9,13.7c-0.1-0.2-0.1-0.4-0.2-0.6c-1.6,0.6-3.2,1.2-4.8,1.8 c0,0-0.1,0-0.1,0.1c0,0,0,0-0.1,0c0.4-0.1,0.8-0.1,1.2-0.1c0.1,0,0.2,0,0.3,0c0.9,0,1.7,0.2,2.4,0.4c0.7,0.3,1.2,0.7,1.6,1.2 C49.3,15.5,49.2,14.5,48.9,13.7z M52,11.6c0.2-0.7,0.4-1.6,0.7-2.4c-0.5,0-0.8,0-1.1,0c0,0-0.1,0-0.1,0h0c0,0,0-0.1,0-0.2 c0.1-0.2,0.2-0.4,0.2-0.7s-0.1-0.4-0.2-0.6s-0.3-0.3-0.4-0.4c-0.4-0.3-0.9-0.4-1.4-0.2c-0.4,0.1-0.8,0.4-1.1,0.9 c-0.2,0.4-0.3,0.8-0.4,1.2s0,0.8,0,1.2c0.1,0.4,0.1,0.8,0.2,1.2s0.2,0.8,0.3,1.2c0,0,0,0.1,0,0.1C50,12.4,51,12,52,11.6z" class="st38"/><path d="M60.5,11.6C60.6,11.6,60.6,11.6,60.5,11.6c0.1,0.1,0.1,0.1,0.1,0.2c-0.1,0.2-0.2,0.4-0.3,0.6 c-0.1,0.2-0.3,0.4-0.4,0.6c-0.4,0.5-0.8,0.8-1.2,0.9c-0.1,0-0.1,0-0.2,0c-0.2,0-0.3-0.1-0.4-0.2C58,13.6,58,13.5,58,13.4 c0-0.1,0-0.2,0.1-0.3c0.1-0.2,0.2-0.4,0.3-0.6c0.1-0.2,0.3-0.4,0.4-0.5c-0.2,0-0.4-0.1-0.5-0.1c-0.2,0-0.4-0.1-0.5-0.2 c-0.1,0-0.1-0.1-0.2-0.1c-0.3,0.3-0.6,0.5-0.9,0.7c-0.1,0-0.2,0.1-0.3,0.1c-0.1,0.2-0.3,0.5-0.5,0.7c-0.2,0.2-0.4,0.4-0.6,0.6 c-0.3,0.2-0.7,0.3-1,0.2c-0.2-0.1-0.4-0.2-0.6-0.4s-0.2-0.5-0.1-0.8c0-0.3,0.1-0.6,0.3-0.8c0,0,0-0.1,0.1-0.1 c0-0.2,0-0.5,0.1-0.7c0.1-0.3,0.3-0.6,0.6-0.8c0.3-0.2,0.6-0.3,1-0.3c0.3,0,0.6,0.2,0.8,0.4c0.2,0.2,0.3,0.5,0.3,0.8 s0,0.6-0.2,1c0,0,0,0,0,0c0.3-0.2,0.6-0.4,0.8-0.6c-0.2-0.2-0.3-0.4-0.3-0.6c-0.1-0.4,0-0.8,0.3-1.3C57.6,9.2,57.9,9,58.1,9 c0.2,0,0.4,0,0.5,0.2c0.2,0.2,0.2,0.6-0.1,1.1c-0.2,0.4-0.4,0.7-0.7,1c0,0,0.1,0.1,0.1,0.1c0.2,0.1,0.4,0.2,0.6,0.2 c0.2,0,0.4,0.1,0.6,0.1c0,0,0.1,0,0.1,0.1c0,0,0,0.1,0,0.1c-0.2,0.2-0.3,0.4-0.5,0.6c-0.1,0.2-0.3,0.4-0.4,0.6 c-0.1,0.2-0.1,0.4,0,0.5c0,0,0.1,0.1,0.1,0.1c0.1,0,0.1,0,0.2,0c0.3-0.1,0.5-0.2,0.7-0.4c0.2-0.2,0.4-0.4,0.6-0.7 s0.3-0.5,0.4-0.8c0,0,0-0.1,0.1-0.1S60.5,11.6,60.5,11.6z M55.2,13.3c0.4-0.2,0.6-0.5,0.9-0.9c-0.4,0.1-0.8,0.2-1.2,0.1 c-0.4-0.1-0.6-0.3-0.8-0.5c-0.1,0.2-0.2,0.4-0.2,0.6c0,0.2,0,0.4,0.1,0.6c0.1,0.2,0.2,0.3,0.5,0.4C54.7,13.5,55,13.5,55.2,13.3z M56.3,12c0.1-0.3,0.2-0.6,0.2-0.9s-0.1-0.5-0.3-0.7c-0.1-0.2-0.3-0.3-0.6-0.3c-0.2,0-0.5,0-0.8,0.2c-0.2,0.1-0.3,0.3-0.4,0.5 c-0.1,0.2-0.2,0.4-0.2,0.6c0.1-0.1,0.3-0.2,0.4-0.3c0,0,0.1,0,0.1,0s0.1,0,0.1,0.1c0,0,0,0.1,0,0.1c0,0,0,0.1-0.1,0.1 c-0.2,0.1-0.3,0.2-0.4,0.3c0,0,0,0,0,0c0.1,0.3,0.3,0.5,0.7,0.6c0.4,0.1,0.8,0,1.3-0.1C56.3,12.1,56.3,12,56.3,12z M57.7,11.1 c0.2-0.3,0.4-0.6,0.6-0.9c0.2-0.4,0.3-0.7,0.1-0.9c-0.1-0.1-0.1-0.1-0.2-0.1c0,0,0,0-0.1,0c-0.2,0-0.3,0.1-0.4,0.3 c-0.2,0.3-0.3,0.6-0.3,0.9S57.5,10.9,57.7,11.1z" class="st38"/><path d="M63.3,11.6C63.3,11.6,63.3,11.7,63.3,11.6c0.1,0.1,0.1,0.1,0,0.2c-0.2,0.4-0.5,0.8-0.8,1.1s-0.6,0.6-1,0.8 c-0.2,0.1-0.3,0.1-0.5,0.1c-0.4,0-0.7-0.2-0.9-0.6c-0.1-0.3-0.1-0.5,0-0.8c0.1-0.3,0.1-0.5,0.2-0.6c0.4-0.8,0.9-1.4,1.5-1.8 c0.1,0,0.2-0.1,0.3-0.1c0.1,0,0.2,0,0.4,0c0.2,0,0.4,0.1,0.5,0.3c0.1,0.2,0.1,0.5,0,0.7c-0.2,0.3-0.4,0.6-0.8,0.8 c-0.5,0.3-1.1,0.3-1.6,0.2c-0.1,0.2-0.1,0.3-0.1,0.5c0,0.2,0,0.4,0,0.6c0.1,0.2,0.2,0.4,0.4,0.4c0.2,0.1,0.4,0.1,0.7,0 c0.3-0.1,0.6-0.4,0.9-0.7c0.3-0.3,0.5-0.7,0.7-1c0,0,0.1-0.1,0.1-0.1S63.2,11.6,63.3,11.6z M62,10.2c-0.3,0.2-0.6,0.4-0.8,0.7 c-0.2,0.3-0.4,0.5-0.5,0.7c0.4,0.1,0.9,0,1.4-0.2c0.3-0.2,0.5-0.4,0.6-0.6c0.1-0.2,0.1-0.4,0-0.5c0,0,0-0.1-0.1-0.1 c0,0-0.1-0.1-0.2-0.1C62.3,10.1,62.1,10.1,62,10.2z" class="st38"/></g><g><path d="M34.3,10.4l-0.1,0.1c-0.5,0.3-1.1,0.5-1.8,0.8c0.4-0.1,0.7-0.1,1-0.2c0.3,0,0.6,0,0.9,0s0.6,0.1,0.9,0.2 s0.4,0.3,0.5,0.5c0.1,0.3,0,0.7-0.3,1.1c-0.1,0.2-0.3,0.3-0.4,0.5c-0.2,0.1-0.3,0.3-0.4,0.4c-1,0.8-2,1.4-3.2,2 c-0.6,0.3-1.2,0.5-1.7,0.7c-0.1,0.3-0.1,0.5-0.2,0.8c0,0,0,0.1-0.1,0.1s-0.1,0-0.1,0c0,0,0,0,0,0c0,0-0.1,0-0.1,0c0,0,0,0,0-0.1 c0.1-0.2,0.1-0.5,0.2-0.7c-0.5,0.2-0.9,0.3-1.4,0.4c-0.6,0.1-1.2,0.2-1.7,0.2c-0.2,0-0.4,0-0.5,0c-0.9-0.1-1.4-0.4-1.7-0.8 c-0.3-0.6-0.2-1.2,0.5-2.1c0.4-0.5,0.9-1,1.5-1.4c0.5-0.4,1.1-0.8,1.7-1.1s1.1-0.6,1.7-0.8c0,0,0.1,0,0.1,0s0,0,0.1,0.1 c0,0,0,0.1,0,0.1S29.3,11,29.3,11c-0.5,0.2-1.1,0.5-1.6,0.8s-1.1,0.7-1.6,1.1s-1,0.8-1.4,1.3c-0.2,0.3-0.4,0.5-0.5,0.9 c-0.1,0.3-0.1,0.6,0.1,0.9c0.2,0.3,0.5,0.5,0.8,0.6c0.3,0.1,0.7,0.2,1.1,0.2c0.4,0,0.8,0,1.1-0.1s0.6-0.1,0.8-0.1 c0.5-0.1,0.9-0.2,1.4-0.4c0.4-1.3,0.9-2.8,1.4-4.4c-0.3,0.1-0.5,0.1-0.5,0.2c0,0-0.1,0-0.1,0s0,0,0-0.1c0,0,0-0.1,0-0.1 s0.1-0.1,0.1-0.1c0,0,0.2-0.1,0.7-0.2c0.4-1.1,0.8-2.1,1.2-3.1c-1.8,0.8-3.5,1.8-5.1,3c0,0-0.1,0-0.1,0s-0.1,0-0.1,0 c0,0,0-0.1,0-0.1s0-0.1,0.1-0.1c1.7-1.2,3.5-2.3,5.4-3.1c0.2-0.5,0.4-1,0.6-1.4c0,0,0-0.1,0.1-0.1s0.1,0,0.1,0c0,0,0.1,0,0.1,0 s0,0.1,0,0.1c-0.2,0.4-0.3,0.8-0.5,1.2c1.3-0.5,2.5-0.9,3.6-1.1c0.2,0,0.3-0.1,0.5-0.1s0.3,0,0.5,0c0.3,0.1,0.5,0.2,0.5,0.5 c0.1,0.5-0.3,1-1.2,1.7c-0.4,0.3-0.7,0.5-1.1,0.8S34.7,10.2,34.3,10.4z M33.3,11.4c-0.3,0-0.7,0.1-1.1,0.2s-0.8,0.2-1.2,0.3 c-0.6,1.6-1.1,3-1.4,4.4c0.8-0.3,1.7-0.7,2.5-1.1c0.8-0.4,1.6-0.9,2.3-1.5c0.1-0.1,0.3-0.2,0.4-0.3c0.1-0.1,0.3-0.3,0.4-0.4 c0.3-0.4,0.3-0.6,0.2-0.9c-0.1-0.2-0.3-0.3-0.5-0.4s-0.5-0.2-0.8-0.2S33.6,11.3,33.3,11.4z M34.1,10.2l0.1-0.1 c0.4-0.2,0.7-0.4,1.1-0.6s0.7-0.5,1.1-0.7c0.3-0.2,0.5-0.4,0.7-0.7s0.3-0.5,0.3-0.7c0-0.2-0.2-0.3-0.4-0.3c-0.1,0-0.3,0-0.5,0 s-0.3,0-0.5,0.1c-1.2,0.3-2.4,0.6-3.7,1.2c-0.4,1-0.8,2-1.2,3.1c0.5-0.2,0.9-0.4,1.5-0.6S33.7,10.4,34.1,10.2z" class="st38"/><path d="M40.2,11.6C40.2,11.6,40.3,11.6,40.2,11.6c0,0.1,0,0.1,0,0.2c-0.2,0.2-0.4,0.4-0.7,0.5 c-0.1,0.2-0.3,0.5-0.5,0.7c-0.2,0.2-0.4,0.4-0.6,0.6c-0.3,0.2-0.5,0.2-0.8,0.2c-0.1,0-0.2,0-0.2,0c-0.5-0.1-0.7-0.5-0.7-1.2 c0-0.3,0.1-0.6,0.3-0.8c0,0,0-0.1,0.1-0.1c0-0.2,0-0.5,0.1-0.8c0.1-0.3,0.3-0.6,0.6-0.8c0.3-0.2,0.6-0.3,1-0.3 c0.3,0,0.6,0.2,0.8,0.4c0.3,0.4,0.4,1,0.1,1.8c0.1-0.1,0.3-0.2,0.4-0.3C40.1,11.6,40.1,11.6,40.2,11.6 C40.2,11.6,40.2,11.6,40.2,11.6z M38.3,13.3c0.3-0.2,0.6-0.5,0.9-0.9c-0.4,0.1-0.8,0.1-1.1,0.1c-0.4-0.1-0.7-0.3-0.8-0.6 C37,12.2,37,12.4,37,12.6c0,0.2,0,0.4,0.1,0.6c0.1,0.2,0.2,0.3,0.5,0.4C37.7,13.5,38,13.5,38.3,13.3z M39.4,12 c0.2-0.7,0.2-1.2-0.1-1.6c-0.1-0.2-0.3-0.3-0.6-0.3s-0.5,0-0.8,0.2c-0.2,0.1-0.3,0.3-0.4,0.5s-0.2,0.4-0.2,0.6 c0.1-0.1,0.3-0.2,0.4-0.3c0,0,0.1,0,0.1,0s0.1,0,0.1,0.1s0,0.1,0,0.1s0,0.1-0.1,0.1c-0.2,0.1-0.3,0.2-0.4,0.3c0,0,0,0,0,0 c0.1,0.3,0.4,0.5,0.7,0.6c0.4,0.1,0.8,0,1.2-0.1C39.3,12.1,39.3,12,39.4,12z" class="st38"/><path d="M43.4,11.6C43.4,11.6,43.4,11.6,43.4,11.6c0,0.1,0,0.1,0,0.2c-0.2,0.2-0.4,0.4-0.7,0.5 c-0.1,0.2-0.3,0.5-0.5,0.7c-0.2,0.2-0.4,0.4-0.6,0.6c-0.3,0.2-0.5,0.2-0.8,0.2c-0.1,0-0.2,0-0.2,0c-0.5-0.1-0.7-0.5-0.7-1.2 c0-0.3,0.1-0.6,0.3-0.8c0,0,0-0.1,0.1-0.1c0-0.2,0-0.5,0.1-0.8c0.1-0.3,0.3-0.6,0.6-0.8c0.3-0.2,0.6-0.3,1-0.3 c0.3,0,0.6,0.2,0.8,0.4c0.3,0.4,0.4,1,0.1,1.8c0.1-0.1,0.3-0.2,0.4-0.3C43.2,11.6,43.2,11.6,43.4,11.6 C43.3,11.6,43.3,11.6,43.4,11.6z M41.4,13.3c0.3-0.2,0.6-0.5,0.9-0.9c-0.4,0.1-0.8,0.1-1.1,0.1c-0.4-0.1-0.7-0.3-0.8-0.6 c-0.1,0.2-0.2,0.4-0.2,0.6c0,0.2,0,0.4,0.1,0.6c0.1,0.2,0.2,0.3,0.5,0.4C40.9,13.5,41.2,13.5,41.4,13.3z M42.5,12 c0.2-0.7,0.2-1.2-0.1-1.6c-0.1-0.2-0.3-0.3-0.6-0.3s-0.5,0-0.8,0.2c-0.2,0.1-0.3,0.3-0.4,0.5s-0.2,0.4-0.2,0.6 c0.1-0.1,0.3-0.2,0.4-0.3c0,0,0.1,0,0.1,0s0.1,0,0.1,0.1s0,0.1,0,0.1s0,0.1-0.1,0.1c-0.2,0.1-0.3,0.2-0.4,0.3c0,0,0,0,0,0 c0.1,0.3,0.4,0.5,0.7,0.6c0.4,0.1,0.8,0,1.2-0.1C42.5,12.1,42.5,12,42.5,12z" class="st38"/><path d="M46.4,11.6C46.4,11.6,46.5,11.6,46.4,11.6c0.1,0.1,0.1,0.1,0.1,0.2c-0.1,0.3-0.3,0.6-0.5,1 s-0.5,0.6-0.8,0.8c-0.2,0.1-0.4,0.2-0.5,0.2c-0.2,0-0.4-0.1-0.6-0.2c-0.2-0.1-0.3-0.2-0.3-0.3c-0.1-0.2-0.3-0.3-0.4-0.5 c-0.1,0.3-0.2,0.6-0.3,0.8c0,0.1,0,0.1,0,0.2c0,0,0,0.1-0.1,0.1c0,0-0.1,0-0.1,0s-0.1,0-0.1,0c0,0,0-0.1,0-0.1 c0.2-0.6,0.3-1.2,0.5-1.9c0.5-1.8,0.9-3.5,1.4-5.3c0,0,0-0.1,0.1-0.1s0.1,0,0.1,0c0,0,0.1,0,0.1,0s0,0.1,0,0.1 c-0.5,1.7-0.9,3.4-1.4,5.1c0,0,0,0,0-0.1c0.3-0.6,0.7-1.1,1.2-1.5c0.3-0.2,0.6-0.4,0.9-0.4c0.2,0,0.4,0.1,0.5,0.3 c0.1,0.1,0.1,0.3,0,0.5s-0.1,0.4-0.2,0.5c-0.2,0.4-0.5,0.7-0.9,0.9c-0.4,0.3-0.7,0.4-1.1,0.5c-0.1,0-0.2,0-0.2,0 c0.1,0.1,0.2,0.3,0.3,0.4c0.4,0.5,0.7,0.6,1,0.4c0.3-0.2,0.5-0.4,0.7-0.8s0.3-0.6,0.5-0.9c0,0,0-0.1,0.1-0.1 S46.4,11.6,46.4,11.6z M43.6,12.3c0.1,0,0.2,0,0.3,0c0.3-0.1,0.7-0.2,1-0.4s0.6-0.5,0.8-0.8c0.1-0.1,0.1-0.3,0.2-0.4 s0-0.3,0-0.4c0-0.1-0.1-0.1-0.3-0.1c-0.1,0-0.2,0-0.4,0.1s-0.2,0.1-0.3,0.2c-0.4,0.4-0.8,0.8-1.1,1.4 C43.8,11.9,43.7,12.1,43.6,12.3z" class="st38"/></g></g></g></switch></svg>